<?xml version="1.0" encoding="UTF-8" standalone="no"?>
<svg width="74px" height="74px" viewBox="0 0 74 74" version="1.1" xmlns="http://www.w3.org/2000/svg" xmlns:xlink="http://www.w3.org/1999/xlink">
    <!-- Generator: Sketch 3.6.1 (26313) - http://www.bohemiancoding.com/sketch -->
    <title>logo</title>
    <desc>Created with Sketch.</desc>
    <defs/>
    <g id="Page-1" stroke="none" stroke-width="1" fill="none" fill-rule="evenodd">
        <g id="logo">
            <path d="M73.999,74 L73.999,0 L0,0 L0,74 L73.999,74 Z" id="Fill-4" fill="#0078C7"/>
            <path d="M54.4609,26.0376 L54.4609,28.7256 L57.8119,29.2356 L57.8119,42.3476 C57.8119,44.3646 56.5469,45.2256 54.9999,45.2256 C54.1479,45.2256 52.7909,44.9706 51.9059,44.7456 L51.9059,48.1366 C53.1999,48.5526 54.8419,48.7436 55.9159,48.7436 C59.7399,48.7436 61.8869,46.7606 61.8869,42.4116 L61.8869,29.2356 L64.8289,28.6926 L64.8289,26.0376 L54.4609,26.0376 L54.4609,26.0376 Z" id="Fill-5" fill="#FFFFFF"/>
            <path d="M37.1182,31.9802 C37.1182,29.7722 38.8692,28.9112 41.5402,28.9112 C42.5542,28.9112 43.8262,29.1322 45.0012,29.4222 L45.4162,33.2922 L48.1172,33.2922 L48.1172,26.7992 C46.3362,26.1592 43.7952,25.5202 40.9342,25.5202 C36.7052,25.5202 32.9572,27.6302 32.9572,32.1722 C32.9572,40.7142 45.1622,37.6112 45.1622,42.3462 C45.1622,44.5872 43.2522,45.4492 40.5522,45.4492 C39.4082,45.4492 37.9782,45.1922 36.5472,44.8102 L36.1012,40.6842 L33.3392,40.6842 L33.3392,47.2402 C35.8502,48.2962 38.3262,48.8092 40.9972,48.8092 C45.1292,48.8092 49.2922,46.9212 49.2922,42.1212 C49.2922,33.6772 37.1182,36.7822 37.1182,31.9802" id="Fill-7" fill="#FFFFFF"/>
            <path d="M24.4022,38.9226 C27.2132,37.9316 28.8742,35.6606 28.8742,32.7536 C28.8742,29.2666 26.5742,26.0376 21.7832,26.0376 L12.7532,26.0376 L9.7832,26.0376 L9.7832,28.7556 L12.7532,29.2666 L12.7532,45.0626 L9.7832,45.5716 L9.7832,48.2886 L12.7532,48.2886 L12.7712,48.2886 L19.8402,48.2886 L19.8402,45.5396 L16.8712,45.0596 L16.8712,39.5946 L20.1572,39.5946 L25.6162,48.2886 L30.2142,48.2886 L30.2142,47.6486 L24.3722,39.0506 L24.4022,38.9226 L24.4022,38.9226 Z M20.6062,36.3646 L16.8712,36.3646 L16.8712,29.2986 L20.8292,29.2986 C23.1252,29.2986 24.5642,30.5776 24.5642,32.7196 C24.5642,34.8296 23.2222,36.3646 20.6062,36.3646 L20.6062,36.3646 L20.6062,36.3646 Z" id="Fill-9" fill="#FFFFFF"/>
        </g>
    </g>
</svg>